<?xml version="1.0" encoding="UTF-8" standalone="no"?>
<svg
   version="1.1"
   width="425.77643"
   height="104.36562"
   id="svg20"
   xmlns="http://www.w3.org/2000/svg"
   xmlns:svg="http://www.w3.org/2000/svg">
  <defs
     id="defs20" />
  <path
     d="m 334.31248,16.365622 c 4.29,0 8.58,0 13,0 0.33,0.66 0.66,1.32 1,2 0.51562,-0.33 1.03125,-0.66 1.5625,-1 3.33061,-1.3664 5.86396,-1.31347 9.4375,-1 2.75,1.5 2.75,1.5 5,3 3.03467,0.27735 3.03467,0.27735 5.25,-1.5 3.533,-1.92709 5.77235,-1.92618 9.75,-1.5 3.823,1.69911 5.4715,3.14753 7,7 0.24051,2.41718 0.24051,2.41718 0.22705,5.13574 -1.5e-4,1.02076 -3e-4,2.04151 -4.6e-4,3.0932 -0.0103,1.09492 -0.0206,2.18984 -0.0313,3.31793 -0.003,1.12634 -0.006,2.25268 -0.009,3.41315 -0.0112,3.59677 -0.0363,7.19329 -0.0617,10.78998 -0.01,2.4388 -0.0192,4.8776 -0.0273,7.31641 -0.022,5.97796 -0.0566,11.95573 -0.0976,17.93359 -3.96,0 -7.92,0 -12,0 0,-15.18 0,-30.36 0,-46 -2.64,0 -5.28,0 -8,0 0,15.18 0,30.36 0,46 -3.96,0 -7.92,0 -12,0 0,-15.18 0,-30.36 0,-46 -2.31,0 -4.62,0 -7,0 0,15.18 0,30.36 0,46 -4.29,0 -8.58,0 -13,0 0,-19.14 0,-38.28 0,-58 z"
     fill="#fefefe"
     id="path1-1"
     style="fill:#1d2333;fill-opacity:1" />
  <path
     d="m 196.31248,2.3656218 c 8.91,0 17.82,0 27,0 5.96041,5.96041 5.96041,5.96041 6.11352,9.9809602 -0.005,1.24636 -0.0105,2.49272 -0.0159,3.77685 -0.001,0.66305 -0.003,1.3261 -0.004,2.00925 -0.006,2.11936 -0.0181,4.23861 -0.0309,6.35794 -0.005,1.4362 -0.01,2.87239 -0.0137,4.30859 -0.011,3.52217 -0.0283,7.04428 -0.0488,10.56641 -1.98,0.99 -3.96,1.98 -6,3 2.35129,7.6741 5.54978,14.80791 8.94727,22.06641 0.39251,0.85207 0.78503,1.70414 1.18945,2.58203 0.35796,0.76489 0.71591,1.52979 1.08472,2.31787 0.77856,2.03369 0.77856,2.03369 0.77856,5.03369 -4.29,0 -8.58,0 -13,0 -1.8379,-3.95627 -3.67051,-7.91484 -5.5,-11.875 -0.52465,-1.12793 -1.0493,-2.25586 -1.58984,-3.41797 -0.49629,-1.07637 -0.99258,-2.15273 -1.50391,-3.26172 -0.46084,-0.99499 -0.92168,-1.98999 -1.39648,-3.01513 -1.00977,-2.43018 -1.00977,-2.43018 -1.00977,-4.43018 -0.66,0 -1.32,0 -2,0 0,8.58 0,17.16 0,26 -4.29,0 -8.58,0 -13,0 0,-23.76 0,-47.52 0,-72.0000002 z m 13,11.0000002 c 0,7.26 0,14.52 0,22 2.64,-1.32 5.28,-2.64 8,-4 0,-5.94 0,-11.88 0,-18 -2.64,0 -5.28,0 -8,0 z"
     fill="#fdfdfd"
     id="path2-6"
     style="fill:#1d2333;fill-opacity:1" />
  <path
     d="m 275.31248,16.365622 c 4.29,0 8.58,0 13,0 0,11.22 0,22.44 0,34 1.98,-0.99 3.96,-1.98 6,-3 0.33,-10.23 0.66,-20.46 1,-31 3.96,0 7.92,0 12,0 0.11594,8.64925 0.20474,17.29823 0.25906,25.94808 0.0261,4.01669 0.0614,8.03285 0.11814,12.04923 0.0544,3.87743 0.0842,7.75434 0.0972,11.63211 0.009,1.47802 0.0272,2.95601 0.0543,4.4338 0.0364,2.07353 0.0413,4.14496 0.039,6.21876 0.0167,1.76872 0.0167,1.76872 0.0336,3.57317 -0.77985,4.07882 -2.4423,5.54505 -5.60128,8.14485 -5.59645,2.47168 -11.11735,2.06957 -17,1 0,0.66 0,1.32 0,2 0.99,0 1.98,0 3,0 0,1.32 0,2.64 0,4 -0.99,0 -1.98,0 -3,0 0,1.32 0,2.64 0,4 0.99,0.33 1.98,0.659998 3,0.999998 0,0.99 0,1.98 0,3 -1.99955,0.0425 -4.00042,0.0408 -6,0 -2.34168,-2.34168 -1.32958,-8.313168 -1.42578,-11.484368 -0.65666,-4.02035 -1.95686,-5.4901 -4.57422,-8.51563 -0.74074,-2.72079 -0.80754,-5.16118 -1,-8 1.78882,-1.00509 3.58115,-2.00393 5.375,-3 0.99773,-0.55688 1.99547,-1.11375 3.02344,-1.6875 2.60156,-1.3125 2.60156,-1.3125 4.60156,-1.3125 0,2.64 0,5.28 0,8 2.31,0 4.62,0 7,0 -0.33,-5.61 -0.66,-11.22 -1,-17 -1.20398,0.66129 -2.40797,1.32258 -3.64844,2.00391 -1.57529,0.85328 -3.15082,1.70612 -4.72656,2.55859 -1.19109,0.65645 -1.19109,0.65645 -2.40625,1.32617 -1.14082,0.61392 -1.14082,0.61392 -2.30469,1.24024 -0.70173,0.38228 -1.40346,0.76457 -2.12646,1.15844 -0.58991,0.23518 -1.17982,0.47035 -1.7876,0.71265 -0.66,-0.33 -1.32,-0.66 -2,-1 0,-17.16 0,-34.32 0,-52 z"
     fill="#fefefe"
     id="path3-2"
     style="fill:#1d2333;fill-opacity:1" />
  <path
     d="m 84.31248,1.3656218 c 8.91,0 17.82,0 27,0 5.26779,5.26779 6.11292,6.5361 6.16113,13.3859902 0.01,1.10157 0.0192,2.20313 0.0291,3.33808 0.004,1.19063 0.008,2.38126 0.0129,3.60796 0.006,1.2245 0.0114,2.44901 0.0173,3.71062 0.01,2.59328 0.016,5.18657 0.0198,7.77986 0.01,3.96367 0.0407,7.92683 0.0723,11.89038 0.007,2.51888 0.0118,5.03776 0.0156,7.55664 0.0124,1.18455 0.0247,2.36911 0.0374,3.58955 -0.0283,10.47768 -0.0283,10.47768 -3.36555,15.14092 -8.33897,5.55931 -19.9778,2 -30,2 0,-23.76 0,-47.52 0,-72.0000002 z m 13,11.0000002 c -1.14254,2.28508 -1.12668,3.55648 -1.1294,6.09497 -0.003,0.8446 -0.006,1.68921 -0.01,2.5594 0.002,0.91457 0.004,1.82913 0.006,2.77141 -9.5e-4,0.93974 -0.002,1.87948 -0.003,2.8477 -6.8e-4,1.99144 0.001,3.98289 0.005,5.97432 0.005,3.0418 7e-5,6.08345 -0.006,9.12525 6.7e-4,1.93424 0.002,3.86849 0.004,5.80273 -0.002,0.90849 -0.004,1.81698 -0.006,2.75301 0.0154,4.15162 0.0838,8.02377 1.139,12.07121 2.310003,0 4.62,0 7,0 0,-16.5 0,-33 0,-50 -2.31,0 -4.619997,0 -7,0 z"
     fill="#e0d9c6"
     id="path4-0"
     style="fill:#3758f9;fill-opacity:1" />
  <path
     d="m 154.31248,1.3656218 c 4.29,0 8.58,0 13,0 0.86117,4.73108 1.71544,9.4633302 2.56348,14.1967802 0.28914,1.60841 0.58013,3.21649 0.87304,4.82422 0.42192,2.31766 0.83707,4.63646 1.25098,6.95556 0.13124,0.71274 0.26248,1.42548 0.3977,2.15982 0.70718,4.00464 1.04826,7.79858 0.9148,11.86362 0.66,0 1.32,0 2,0 0.0637,-1.04269 0.0637,-1.04269 0.12866,-2.10645 0.59232,-8.33486 1.90426,-16.43439 3.43384,-24.64355 0.23396,-1.28133 0.46793,-2.56266 0.70898,-3.88281 0.57106,-3.1233402 1.14906,-6.2454002 1.72852,-9.3671902 4.29,0 8.58,0 13,0 -2.90575,17.6369002 -5.83432,35.2698802 -8.91888,52.8765302 -0.26218,1.49765 -0.52329,2.9955 -0.78333,4.49353 -0.36295,2.08817 -0.73008,4.17555 -1.09857,6.26275 -0.20794,1.18481 -0.41588,2.36962 -0.63013,3.59034 -0.56909,2.77685 -0.56909,2.77685 -1.56909,4.77685 -4.62,0 -9.24,0 -14,0 -2.08387,-8.772 -3.90937,-17.53707 -5.48047,-26.41406 -0.21771,-1.21747 -0.43543,-2.43494 -0.65974,-3.6893 -0.45445,-2.54583 -0.90729,-5.09195 -1.35857,-7.63834 -0.69319,-3.90853 -1.39276,-7.81588 -2.09302,-11.72314 -0.44243,-2.48301 -0.8845,-4.96608 -1.32617,-7.44922 -0.20933,-1.16867 -0.41865,-2.33734 -0.63432,-3.54142 -0.19053,-1.07897 -0.38105,-2.15795 -0.57735,-3.2696202 -0.1686,-0.94896 -0.3372,-1.89792 -0.51091,-2.87564 -0.35945,-2.39926 -0.35945,-2.39926 -0.35945,-5.39926 z"
     fill="#e1dac7"
     id="path5-2"
     style="fill:#3758f9;fill-opacity:1" />
  <path
     d="m 248.31248,1.3656218 c 0.33,5.94 0.66,11.8800002 1,18.0000002 1.65,-0.99 3.3,-1.98 5,-3 4.9705,-0.53255 8.05882,-0.15295 12,3 1.95248,3.11066 2.24507,5.49592 2.22705,9.13574 -1.5e-4,1.02076 -3e-4,2.04151 -4.6e-4,3.0932 -0.0103,1.09492 -0.0206,2.18984 -0.0313,3.31793 -0.003,1.12634 -0.006,2.25268 -0.009,3.41315 -0.0112,3.59677 -0.0363,7.19329 -0.0617,10.78998 -0.01,2.4388 -0.0192,4.8776 -0.0273,7.31641 -0.022,5.97796 -0.0566,11.95573 -0.0976,17.93359 -3.96,0 -7.92,0 -12,0 0,-15.18 0,-30.36 0,-46 -2.64,0 -5.28,0 -8,0 0,15.18 0,30.36 0,46 -3.96,0 -7.92,0 -12,0 0,-22.11 0,-44.22 0,-67.0000002 11,-6 11,-6 12,-6 z"
     fill="#fdfefe"
     id="path6-4"
     style="fill:#1d2333;fill-opacity:1" />
  <path
     d="m 409.81248,15.990622 c 0.74637,-0.0116 1.49273,-0.0232 2.26172,-0.0352 4.55609,0.0242 7.54633,0.47588 11.23828,3.41016 2.1021,3.15315 2.24348,3.86103 2.19531,7.44922 -0.006,0.84756 -0.0129,1.69512 -0.0195,2.56836 -0.0168,0.88107 -0.0335,1.76215 -0.0508,2.66992 -0.009,0.89268 -0.0181,1.78535 -0.0273,2.70508 -0.0236,2.20274 -0.0565,4.40495 -0.0977,6.60742 -2.7881,1.5067 -5.58104,3.0042 -8.375,4.5 -0.79406,0.42926 -1.58813,0.85852 -2.40625,1.30078 -1.14082,0.60908 -1.14082,0.60908 -2.30469,1.23047 -1.0526,0.56558 -1.0526,0.56558 -2.12646,1.14258 -1.7876,0.82617 -1.7876,0.82617 -3.7876,0.82617 0,4.29 0,8.58 0,13 2.31,0 4.62,0 7,0 0,-3.63 0,-7.26 0,-11 9.75,-5 9.75,-5 12,-5 0.14611,3.37454 0.23433,6.74826 0.3125,10.125 0.0419,0.95133 0.0838,1.90266 0.12695,2.88281 0.0743,4.27839 0.13473,7.98031 -2.30273,11.62891 -4.50325,3.39286 -8.14037,3.21333 -13.63672,3.05078 -0.93715,0.0148 -1.8743,0.0297 -2.83984,0.0449 -4.6219,-0.0557 -6.96194,-0.21493 -10.75391,-3.02539 -3.40177,-4.83079 -3.07918,-9.62522 -3.10938,-15.38281 -0.006,-0.84339 -0.0114,-1.68677 -0.0173,-2.55571 -0.009,-1.78277 -0.016,-3.56556 -0.0198,-5.34835 -0.01,-2.71263 -0.0407,-5.4245 -0.0723,-8.13696 -0.006,-1.73632 -0.0118,-3.47265 -0.0156,-5.20898 -0.0123,-0.8044 -0.0247,-1.6088 -0.0374,-2.43758 0.0207,-5.28689 0.88383,-8.94382 3.36555,-13.63664 4.08866,-3.62943 8.30076,-3.45582 13.5,-3.375 z m -3.5,12.375 c 0,3.63 0,7.26 0,11 2.31,-0.99 4.62,-1.98 7,-3 0,-2.64 0,-5.28 0,-8 -2.31,0 -4.62,0 -7,0 z"
     fill="#fdfdfe"
     id="path7-5"
     style="fill:#1d2333;fill-opacity:1" />
  <path
     d="m 134.83201,0.77968175 c 1.02158,0.0193 2.04316,0.0387 3.0957,0.0586 1.0551,0.0503 2.1102,0.10055 3.19727,0.15235 1.61165,0.0406001 1.61165,0.0406001 3.25586,0.082 2.64474,0.0705 5.28845,0.17814 7.93164,0.29297 0,3.63 0,7.26 0,11.0000002 -5.28,0 -10.56,0 -16,0 0,5.94 0,11.88 0,18 4.51958,-2.29932 4.51958,-2.29932 9.03467,-4.60742 4.74311,-2.39258 4.74311,-2.39258 6.96533,-2.39258 0,4.62 0,9.24 0,14 -2.28929,1.17154 -4.58119,2.33738 -6.875,3.5 -0.65098,0.33386 -1.30195,0.66773 -1.97266,1.01172 -4.92578,2.48828 -4.92578,2.48828 -7.15234,2.48828 0,5.94 0,11.88 0,18 5.28,0 10.56,0 16,0 0,3.63 0,7.26 0,11 -9.24,0 -18.48,0 -28,0 -0.11312,-8.50172 -0.20478,-17.00285 -0.25906,-25.50512 -0.0261,-3.94829 -0.0614,-7.89603 -0.11814,-11.844 -0.0545,-3.81259 -0.0842,-7.62466 -0.0972,-11.43761 -0.009,-1.45207 -0.0272,-2.90411 -0.0543,-4.35596 -0.2289,-12.7954902 -0.2289,-12.7954902 2.71421,-16.7596602 3.13968,-2.34005 4.4684,-2.81316005 8.33398,-2.68359005 z"
     fill="#e0d9c5"
     id="path8-9"
     style="fill:#3758f9;fill-opacity:1" />
  <path
     d="m 25.31248,0.36562175 c 0,2.97000005 0,5.94000005 0,9.00000005 -1.98,0.33 -3.96,0.6600002 -6,1.0000002 0.0232,1.29035 0.0464,2.5807 0.0703,3.91016 0.0188,1.71744 0.037,3.43489 0.0547,5.15234 0.0168,0.84756 0.0335,1.69512 0.0508,2.56836 0.0446,5.77103 0.085,11.67361 -3.80078,16.30664 -0.45375,0.35063 -0.9075,0.70125 -1.375,1.0625 1.20381,2.49362 2.45429,4.68143 4,7 1.30422,4.65545 1.33122,9.50879 1.5625,14.3125 0.0432,0.83596 0.0864,1.67191 0.13086,2.5332 0.10549,2.05127 0.20651,4.10276 0.30664,6.1543 1.65,0.33 3.3,0.66 5,1 0,3.3 0,6.6 0,10 -8.19589,-0.36698 -8.19589,-0.36698 -11.9375,-3.3125 C 10.45209,73.244482 9.05662,70.716362 9.17969,65.881242 9.59516,56.246202 9.59516,56.246202 6.4375,47.482812 4.24354,45.492262 4.24354,45.492262 2.01172,43.826562 0.31249999,42.365622 0.31249999,42.365622 -1.171875e-8,39.115622 1.58289,35.799082 3.22552,34.323212 6.3125,32.365622 c 0.66,0 1.32,0 2,0 0.009,-0.66532 0.0187,-1.33064 0.0283,-2.01611 0.0539,-3.03703 0.13754,-6.07256 0.22168,-9.10889 0.0213,-1.57008 0.0213,-1.57008 0.043,-3.17188 0.23785,-7.51624 1.32011,-11.0742802 6.45703,-16.5781202 3.44779,-1.72389005 6.42509,-1.31625005 10.25,-1.12500005 z"
     fill="#fcfcfc"
     id="path9-4"
     style="fill:#1d2333;fill-opacity:1" />
  <path
     d="m 38.31248,0.36562175 c 7.76786,-0.66964 7.76786,-0.66964 11.375,2.18750005 5.81117,6.22626 4.924,13.0828202 4.75195,21.1523402 -0.0537,5.11813 -0.0537,5.11813 2.44092,9.344 1.86197,1.34125 1.86197,1.34125 3.80737,2.35351 1.62476,0.96265 1.62476,0.96265 2.87476,3.40015 -0.38562,3.95255 -2.53785,5.7887 -5.25,8.5625 -0.99,0.66 -1.98,1.32 -3,2 -0.4426,2.12403 -0.4426,2.12403 -0.37109,4.57812 -0.0174,0.91395 -0.0348,1.8279 -0.0527,2.76954 -0.009,1.91925 -0.0143,3.83853 -0.0156,5.75781 -0.11806,5.80494 -0.6037,9.32505 -4.56055,13.89453 -3.29077,2.71846 -5.09641,3.93307 -9.375,4.25 -0.86625,-0.0825 -1.7325,-0.165 -2.625,-0.25 0,-3.3 0,-6.6 0,-10 2.475,-0.495 2.475,-0.495 5,-1 0.0374,-1.29035 0.0748,-2.5807 0.11328,-3.91016 0.0657,-1.71747 0.13214,-3.43492 0.19922,-5.15234 0.0338,-1.27134 0.0338,-1.27134 0.0684,-2.56836 0.23372,-5.50318 1.13296,-9.44752 3.61914,-14.36914 0.39188,-0.80437 0.78375,-1.60875 1.1875,-2.4375 0.26812,-0.51563 0.53625,-1.03125 0.8125,-1.5625 -0.95906,-1.11375 -0.95906,-1.11375 -1.9375,-2.25 -2.79697,-3.72929 -3.16246,-6.7205 -3.37891,-11.29688 -0.0628,-1.2665 -0.0628,-1.2665 -0.12695,-2.55859 -0.0393,-0.87269 -0.0786,-1.74539 -0.11914,-2.64453 -0.0432,-0.88816 -0.0864,-1.77633 -0.13086,-2.69141 -0.10578,-2.18605 -0.20787,-4.37221 -0.30664,-6.55859 -2.475,-0.99 -2.475,-0.99 -5,-2.0000002 0,-2.97 0,-5.94 0,-9.00000005 z"
     fill="#fcfcfc"
     id="path10-6"
     style="fill:#1d2333;fill-opacity:1" />
  <path
     d="m 327.31248,1.3656218 c 0,24.0900002 0,48.1800002 0,73.0000002 -3.96,0 -7.92,0 -12,0 0,-22.11 0,-44.22 0,-67.0000002 11,-6 11,-6 12,-6 z"
     fill="#fdfdfd"
     id="path11-1"
     style="fill:#1d2333;fill-opacity:1" />
  <path
     d="m 260.31248,87.365622 c 1.32,0 2.64,0 4,0 0,5.28 0,10.56 0,15.999998 -7.33333,1.22222 -7.33333,1.22222 -10.4375,0.1875 -1.5625,-1.1875 -1.5625,-1.1875 -2.5625,-3.1875 -0.45015,-5.289238 -0.45015,-5.289238 1.1875,-7.874998 2.37286,-1.47281 4.07164,-1.34723 6.8125,-1.125 0.33,-1.32 0.66,-2.64 1,-4 z m -4,8 c -0.33,0.99 -0.66,1.98 -1,3 1.485,0.99 1.485,0.99 3,1.999998 0.66,-1.319998 1.32,-2.639998 2,-3.999998 -1.32,-0.33 -2.64,-0.66 -4,-1 z"
     fill="#fdfdfd"
     id="path12-2"
     style="fill:#1d2333;fill-opacity:1" />
  <path
     d="m 273.99998,91.053122 c 1.75312,0.10312 3.50625,0.20625 5.3125,0.3125 0,3.96 0,7.92 0,11.999998 -8.25481,1.33534 -8.25481,1.33534 -11.5,-0.125 -1.91982,-2.39978 -2.42664,-3.793878 -2.5,-6.874998 1.38742,-5.20284 3.77813,-5.3125 8.6875,-5.3125 z m -3.6875,4.3125 c 0,1.32 0,2.64 0,4 0.99,0.33 1.98,0.659998 3,0.999998 0.33,-1.649998 0.66,-3.299998 1,-4.999998 -1.32,0 -2.64,0 -4,0 z"
     fill="#fdfdfd"
     id="path13-9"
     style="fill:#1d2333;fill-opacity:1" />
  <path
     d="m 308.31248,91.365622 c 8.39844,-0.29297 8.39844,-0.29297 11,0 2.13587,3.2038 2.23132,4.0194 2.125,7.6875 -0.0181,0.80824 -0.0361,1.616478 -0.0547,2.449218 -0.0348,0.92232 -0.0348,0.92232 -0.0703,1.86328 -1.65,0 -3.3,0 -5,0 0,-2.64 0,-5.279998 0,-7.999998 -0.99,0 -1.98,0 -3,0 0,2.64 0,5.279998 0,7.999998 -1.65,0 -3.3,0 -5,0 0,-3.959998 0,-7.919998 0,-11.999998 z"
     fill="#fbfcfc"
     id="path14-5"
     style="fill:#1d2333;fill-opacity:1" />
  <path
     d="m 223.31248,91.365622 c 1.65,0 3.3,0 5,0 0.33,2.64 0.66,5.28 1,8 0.33,0 0.66,0 1,0 0.33,-2.64 0.66,-5.28 1,-8 1.65,0 3.3,0 5,0 0,3.96 0,7.92 0,11.999998 -7.33333,1.22222 -7.33333,1.22222 -10.4375,0.1875 -1.5625,-1.1875 -1.5625,-1.1875 -2.5625,-3.1875 -0.0695,-1.540238 -0.0845,-3.083348 -0.0625,-4.624998 0.009,-0.81727 0.0181,-1.63453 0.0273,-2.47656 0.0116,-0.62649 0.0232,-1.25297 0.0352,-1.89844 z"
     fill="#fcfcfc"
     id="path15-7"
     style="fill:#1d2333;fill-opacity:1" />
  <path
     d="m 300.81248,90.865622 c 3.5,0.5 3.5,0.5 5.4375,1.5625 1.71605,3.12926 1.55998,5.45514 1.0625,8.937498 -2.125,2.0625 -2.125,2.0625 -5,3 -3.1875,-0.4375 -3.1875,-0.4375 -6,-2 -1.5625,-2.812498 -1.5625,-2.812498 -2,-5.999998 1.35734,-4.16251 2.12071,-4.87439 6.5,-5.5 z m -1.5,4.5 c 0.33,1.65 0.66,3.3 1,4.999998 0.99,-0.33 1.98,-0.659998 3,-0.999998 -0.33,-1.32 -0.66,-2.64 -1,-4 -0.99,0 -1.98,0 -3,0 z"
     fill="#fbfcfc"
     id="path16-3"
     style="fill:#1d2333;fill-opacity:1" />
  <path
     d="m 219.31248,91.365622 c 1.875,1.0625 1.875,1.0625 3,3 0.5,3.5 0.5,3.5 0,6.999998 -2.125,2.0625 -2.125,2.0625 -5,3 -3.1875,-0.4375 -3.1875,-0.4375 -6,-2 -1.5,-2.874998 -1.5,-2.874998 -2,-5.999998 0.75,-2.3125 0.75,-2.3125 2,-4 2.7987,-1.39935 4.90499,-1.25265 8,-1 z m -5,4 c 0.33,1.65 0.66,3.3 1,4.999998 0.99,-0.33 1.98,-0.659998 3,-0.999998 -0.33,-1.32 -0.66,-2.64 -1,-4 -0.99,0 -1.98,0 -3,0 z"
     fill="#fdfdfd"
     id="path17-8"
     style="fill:#1d2333;fill-opacity:1" />
  <path
     d="m 238.31248,91.365622 c 1.60875,-0.0412 3.2175,-0.0825 4.875,-0.125 0.90492,-0.0232 1.80984,-0.0464 2.74219,-0.0703 2.38281,0.19531 2.38281,0.19531 4.38281,2.19531 0.19531,2.38281 0.19531,2.38281 0.125,5.125 -0.0181,0.91008 -0.0361,1.820158 -0.0547,2.757808 -0.0232,0.69867 -0.0464,1.39735 -0.0703,2.11719 -1.32,0 -2.64,0 -4,0 -0.33,-2.31 -0.66,-4.619998 -1,-6.999998 -0.99,-0.33 -1.98,-0.66 -3,-1 0,2.64 0,5.279998 0,7.999998 -1.32,0 -2.64,0 -4,0 0,-3.959998 0,-7.919998 0,-11.999998 z"
     fill="#fdfdfd"
     id="path18-8"
     style="fill:#1d2333;fill-opacity:1" />
  <path
     d="m 199.31248,88.365622 c 3.3,0 6.6,0 10,0 0,1.32 0,2.64 0,4 -1.98,0 -3.96,0 -6,0 0,0.66 0,1.32 0,2 1.65,0 3.3,0 5,0 0,0.99 0,1.98 0,3 -1.65,0 -3.3,0 -5,0 0,1.98 0,3.959998 0,5.999998 -1.32,0 -2.64,0 -4,0 0,-4.949998 0,-9.899998 0,-14.999998 z"
     fill="#fcfcfc"
     id="path19-9"
     style="fill:#1d2333;fill-opacity:1" />
  <path
     d="m 289.31248,91.365622 c 1.32,0 2.64,0 4,0 0,3.96 0,7.92 0,11.999998 -1.32,0 -2.64,0 -4,0 0,-3.959998 0,-7.919998 0,-11.999998 z"
     fill="#fbfdfc"
     id="path20-6"
     style="fill:#1d2333;fill-opacity:1" />
</svg>
